<svg xmlns="http://www.w3.org/2000/svg" width="59" height="59" viewBox="0 0 59 59"><defs><clipPath id="qxoga"><path fill="#fff" d="M29.5 0C45.792 0 59 13.208 59 29.5S45.792 59 29.5 59 0 45.792 0 29.5 13.208 0 29.5 0z"/></clipPath></defs><g><g><path fill="#666d89" d="M41 24c0 4-3.684 8.319-5.031 12.078C33.965 41.666 34.25 45 30 45c-4.187 0-3.966-3.349-5.969-8.945C22.69 32.303 19 28.03 19 24c0-6.075 4.925-11 11-11s11 4.925 11 11zm-8.048 14.982c.081-.278.176-.588.264-.884l-6.189.773a43.927 43.927 0 0 0 .607 1.925l4.959-.62c.11-.355.228-.745.36-1.194zm.583-1.923c.107-.34.23-.7.352-1.059H26.12c.229.672.434 1.307.615 1.908zm-1.294 4.16l-4.238.531C28.52 42.884 28.987 43 30 43c1.18 0 1.628-.127 2.241-1.78zm4.104-10.424C37.65 28.446 39 26.018 39 24c0-4.963-4.037-9-9-9s-9 4.037-9 9c0 2.033 1.349 4.448 2.653 6.783.59 1.057 1.188 2.138 1.686 3.217h9.333c.495-1.074 1.088-2.151 1.673-3.205zM30.5 18.5a.5.5 0 0 1-.5.5c-2.757 0-5 2.243-5 5a.5.5 0 1 1-1 0c0-3.309 2.691-6 6-6a.5.5 0 0 1 .5.5z"/></g><g><path fill="none" stroke="#666d89" stroke-miterlimit="20" stroke-width="4" d="M29.5 0C45.792 0 59 13.208 59 29.5S45.792 59 29.5 59 0 45.792 0 29.5 13.208 0 29.5 0z" clip-path="url(&quot;#qxoga&quot;)"/></g></g></svg>