<svg xmlns="http://www.w3.org/2000/svg" width="59" height="59" viewBox="0 0 59 59"><defs><clipPath id="nbksa"><path fill="#fff" d="M29.5 0C45.792 0 59 13.208 59 29.5S45.792 59 29.5 59 0 45.792 0 29.5 13.208 0 29.5 0z"/></clipPath></defs><g><g><path fill="#666d89" d="M43.192 32.192L32.14 43.122a3.047 3.047 0 0 1-4.278 0l-11.053-10.93a9.401 9.401 0 0 1 0-13.4c3.631-3.591 9.432-3.666 13.192-.287 3.76-3.38 9.562-3.304 13.192.287a9.401 9.401 0 0 1 0 13.4zm-1.427-11.99c-2.842-2.812-7.416-2.91-10.409-.222L30 21.2l-1.356-1.219c-2.993-2.689-7.565-2.59-10.409.222a7.429 7.429 0 0 0 0 10.579l11.053 10.93c.391.39 1.032.39 1.425 0l11.052-10.93a7.429 7.429 0 0 0 0-10.58zm-18.013 1.324a.5.5 0 0 1-.5.5h-.001A3.248 3.248 0 0 0 20 25.27v.001a.5.5 0 0 1-1 0 4.247 4.247 0 0 1 4.247-4.244h.004a.5.5 0 0 1 .5.499z"/></g><g><path fill="none" stroke="#666d89" stroke-miterlimit="20" stroke-width="4" d="M29.5 0C45.792 0 59 13.208 59 29.5S45.792 59 29.5 59 0 45.792 0 29.5 13.208 0 29.5 0z" clip-path="url(&quot;#nbksa&quot;)"/></g></g></svg>