<svg xmlns="http://www.w3.org/2000/svg" width="59" height="59" viewBox="0 0 59 59"><defs><clipPath id="vczra"><path fill="#fff" d="M29.5 0C45.792 0 59 13.208 59 29.5S45.792 59 29.5 59 0 45.792 0 29.5 13.208 0 29.5 0z"/></clipPath></defs><g><g><path fill="#666d89" d="M41 17v26a3 3 0 0 1-3 3H22a3 3 0 0 1-3-3V17a3 3 0 0 1 3-3h16a3 3 0 0 1 3 3zm-2 23.996H21v2.005a1 1 0 0 0 1 1l16-.002a1 1 0 0 0 1-1zM39 20H21v19.997l18-.001zm0-3a1 1 0 0 0-1-1H22a1 1 0 0 0-1 1v2h18zm-7.5 1h-3a.5.5 0 1 1 0-1h3a.5.5 0 1 1 0 1zm-1 24.996h-1a.5.5 0 1 1 0-1h1a.5.5 0 1 1 0 1z"/></g><g><path fill="none" stroke="#666d89" stroke-miterlimit="20" stroke-width="4" d="M29.5 0C45.792 0 59 13.208 59 29.5S45.792 59 29.5 59 0 45.792 0 29.5 13.208 0 29.5 0z" clip-path="url(&quot;#vczra&quot;)"/></g></g></svg>