<svg xmlns="http://www.w3.org/2000/svg" width="59" height="59" viewBox="0 0 59 59"><defs><clipPath id="nznea"><path fill="#fff" d="M29.5 0C45.792 0 59 13.208 59 29.5S45.792 59 29.5 59 0 45.792 0 29.5 13.208 0 29.5 0z"/></clipPath></defs><g><g><path fill="#666d89" d="M30.5 21.5a.5.5 0 0 1-.5.5c-5.327 0-10 2.804-10 6a.5.5 0 1 1-1 0c0-3.794 5.037-7 11-7a.5.5 0 0 1 .5.5zM46 28c0 6.627-7.164 12-16 12a21.27 21.27 0 0 1-3.086-.228c-.684.833-3.628 3.704-6.753 4.216.004-.013-.161.012-.255.012a.906.906 0 0 1-.832-1.264h-.002C19.662 41.723 21 39.793 21 38c0-.03.008-.047.008-.074C16.779 35.766 14 32.127 14 28c0-6.627 7.163-12 16-12 8.836 0 16 5.373 16 12zm-2 0c0-5.514-6.28-10-14-10s-14 4.486-14 10c0 3.207 2.212 6.252 5.918 8.145a2 2 0 0 1 1.081 1.965c-.02 1.034-.326 2.038-.716 2.932 1.44-.856 2.657-2.018 3.085-2.54a2 2 0 0 1 1.836-.709c.939.138 1.879.207 2.796.207 7.72 0 14-4.486 14-10z"/></g><g><path fill="none" stroke="#666d89" stroke-miterlimit="20" stroke-width="4" d="M29.5 0C45.792 0 59 13.208 59 29.5S45.792 59 29.5 59 0 45.792 0 29.5 13.208 0 29.5 0z" clip-path="url(&quot;#nznea&quot;)"/></g></g></svg>